<svg
  width="24"
  height="24"
  viewBox="0 0 24 24"
  fill="none"
  xmlns="http://www.w3.org/2000/svg"
>
  <path
    d="M12 15.5C13.933 15.5 15.5 13.933 15.5 12C15.5 10.067 13.933 8.5 12 8.5C10.067 8.5 8.5 10.067 8.5 12C8.5 13.933 10.067 15.5 12 15.5Z"
    stroke="currentColor"
    stroke-width="1.8"
  />

  <path
    d="M19.4 15C19.55 14.67 19.67 14.32 19.75 13.95L21.5 12.6L19.75 10.05C19.67 9.68 19.55 9.33 19.4 9L19.85 6.85L16.85 5.35L15.25 6.65C14.88 6.45 14.49 6.28 14.08 6.15L13.5 4H10.5L9.92 6.15C9.51 6.28 9.12 6.45 8.75 6.65L7.15 5.35L4.15 6.85L4.6 9C4.45 9.33 4.33 9.68 4.25 10.05L2.5 12.6L4.25 13.95C4.33 14.32 4.45 14.67 4.6 15L4.15 17.15L7.15 18.65L8.75 17.35C9.12 17.55 9.51 17.72 9.92 17.85L10.5 20H13.5L14.08 17.85C14.49 17.72 14.88 17.55 15.25 17.35L16.85 18.65L19.85 17.15L19.4 15Z"
    stroke="currentColor"
    stroke-width="1.8"
    stroke-linecap="round"
    stroke-linejoin="round"
  />
</svg>
